<?xml version="1.0" standalone="no"?>
<!DOCTYPE svg PUBLIC "-//W3C//DTD SVG 20010904//EN"
 "http://www.w3.org/TR/2001/REC-SVG-20010904/DTD/svg10.dtd">
<svg version="1.0" xmlns="http://www.w3.org/2000/svg"
 width="92.000000pt" height="92.000000pt" viewBox="0 0 92.000000 92.000000"
 preserveAspectRatio="xMidYMid meet">
<metadata>
Created by potrace 1.11, written by Peter Selinger 2001-2013
</metadata>
<g transform="translate(0.000000,92.000000) scale(0.100000,-0.100000)"
fill="#000000" stroke="none">
<path d="M90 460 l0 -460 370 0 370 0 0 460 0 460 -370 0 -370 0 0 -460z m727
0 l1 -450 -359 0 -359 0 0 450 0 450 358 0 357 0 2 -450z"/>
<path d="M649 873 c0 -10 -1 -64 -2 -120 0 -57 -3 -103 -5 -103 -3 0 -30 12
-61 27 -47 23 -69 28 -136 27 -67 0 -88 -4 -130 -26 -213 -111 -254 -399 -79
-558 110 -100 271 -116 386 -38 l27 18 3 -27 c3 -27 5 -28 63 -28 33 0 66 1
73 3 10 3 12 90 11 410 0 222 -3 410 -5 416 -3 7 -33 13 -74 14 -61 2 -70 0
-71 -15z m-210 -332 c-13 -11 -27 -20 -31 -21 -3 0 -18 -23 -32 -52 -30 -61
-34 -133 -10 -181 21 -41 74 -97 92 -97 7 0 11 -4 8 -9 -12 -20 -90 13 -132
55 -53 53 -65 97 -51 182 9 55 76 125 133 139 49 12 53 9 23 -16z m139 -17
c95 -73 93 -236 -2 -309 -40 -30 -67 -31 -115 -4 -60 33 -86 81 -86 158 0 77
26 126 85 160 47 28 76 26 118 -5z"/>
</g>
</svg>
