<svg width="37" height="46" viewBox="0 0 37 46" fill="none" xmlns="http://www.w3.org/2000/svg">
<g clip-path="url(#clip0)">
<path d="M27.8 1.60001V14C26.8 13.3 25.9 12.7 24.8 12.2C24.5 12.1 24.2 11.9 23.9 11.8C22 11 19.9 10.6 17.8 10.6C16.3 10.6 14.8 10.8 13.4 11.2C13.1 11.3 12.8 11.4 12.6 11.5C12.4 11.6 12.1 11.7 11.8 11.8C10.4 12.4 9.09999 13.2 7.89999 14.2C7.69999 14.4 7.39999 14.6 7.19999 14.8C6.99999 15 6.79999 15.2 6.59999 15.4C5.79999 16.2 5.19999 17 4.59999 18C3.99999 18.9 3.49999 19.9 3.09999 21C2.69999 22.1 2.39999 23.2 2.09999 24.3C1.89999 25.5 1.79999 26.6 1.79999 27.9C1.79999 29.6 2.09999 31.2 2.59999 32.8C2.69999 33.1 2.79999 33.4 2.89999 33.7C2.99999 34 3.09999 34.3 3.29999 34.6C3.99999 36 4.79999 37.4 5.79999 38.5C6.89999 39.8 8.09999 40.9 9.49999 41.8C12.1 43.5 15.2 44.4 18.3 44.4C21.9 44.4 25.2 43.2 28 41V43.7H35.5L35.4 1.70001L27.8 1.60001ZM18.7 17.8C19 17.8 19.2 17.8 19.5 17.8C15.6 19.3 12.9 23.1 12.9 27.5C12.9 31.9 15.7 35.7 19.5 37.2C19.2 37.2 19 37.2 18.7 37.2C13.5 37.2 9.29999 32.9 9.29999 27.5C9.29999 22.2 13.5 17.8 18.7 17.8ZM21.7 36.7C17.3 36 13.9 32.1 13.9 27.5C13.9 22.9 17.3 19.1 21.7 18.3C25.4 19.6 28.1 23.2 28.1 27.5C28.1 31.8 25.4 35.4 21.7 36.7Z" fill="#FAA634"/>
<path d="M0.0999999 46L0 0H36.8L36.9 46H0.0999999Z" stroke="#FAA634" stroke-miterlimit="10"/>
</g>
<defs>
<clipPath id="clip0">
<rect width="37" height="46" fill="white"/>
</clipPath>
</defs>
</svg>
